<?xml version="1.0" encoding="UTF-8"?>
<svg id="Grapes" xmlns="http://www.w3.org/2000/svg" xmlns:xlink="http://www.w3.org/1999/xlink" version="1.1" viewBox="0 0 309.1 327.5">
  <!-- Generator: Adobe Illustrator 29.2.1, SVG Export Plug-In . SVG Version: 2.1.0 Build 116)  -->
  <defs>
    <style>
      .st0 {
        fill:rgb(109, 209, 117);
      }

      .st1 {
        fill:rgb(121, 200, 99);
      }

      .st2 {
        fill:rgb(153, 225, 165);
      }

      .st3 {
        fill: #776228;
      }

      .st4 {
        fill:rgb(34, 184, 82);
      }

      .st5 {
        fill:rgb(48, 128, 57);
      }
    </style>
  </defs>
  <g id="Layer_1">
    <g id="branch">
      <polygon class="st3" points="157.8 68.8 162.8 73.4 185.4 83.1 217.4 91.4 231.2 94.2 232.3 92.3 205.9 84.1 185.6 78.4 168.3 71.2 162.8 68.8 161.2 66.7 157.8 68.8"/>
      <polygon class="st3" points="176.1 112.6 183.6 101.5 187.3 91.5 189.8 81.5 185.9 80.5 184.6 90.6 179.9 97.6 176.9 105.1 170.1 108.4 176.1 112.6"/>
    </g>
    <g id="grape">
      <circle class="st5" cx="67.6" cy="217.2" r="28.4"/>
      <circle class="st5" cx="76.9" cy="149.4" r="28.4"/>
      <circle class="st4" cx="89.7" cy="181.3" r="28.4"/>
      <circle class="st0" cx="130.4" cy="198.1" r="28.4"/>
      <circle class="st5" cx="150.1" cy="241.2" r="28.4"/>
      <circle class="st4" cx="105.3" cy="112.6" r="28.4"/>
      <circle class="st5" cx="146.4" cy="112.6" r="28.4"/>
      <circle class="st2" cx="121.7" cy="152.9" r="28.4"/>
      <circle class="st0" cx="189.8" cy="136.3" r="28.4"/>
      <circle class="st2" cx="181.3" cy="203" r="28.4"/>
      <circle class="st4" cx="84.9" cy="259.8" r="28.4"/>
      <circle class="st0" cx="113.3" cy="269.6" r="28.4"/>
      <circle class="st1" cx="161.4" cy="164.7" r="28.4"/>
      <circle class="st2" cx="105.3" cy="226.1" r="28.4"/>
    </g>
    <circle id="one_grape" class="st4" cx="209.7" cy="169.4" r="28.4"/>
  </g>
</svg>