<?xml version="1.0" encoding="UTF-8"?>
<svg id="Lemon" xmlns="http://www.w3.org/2000/svg" version="1.1" viewBox="0 0 252.67 219.64">
  <!-- Generator: Adobe Illustrator 29.2.1, SVG Export Plug-In . SVG Version: 2.1.0 Build 116)  -->
  <defs>
    <style>
      .st0 {
        fill: #fefce5;
      }

      .st1 {
        fill: none;
        stroke: #f0d640;
        stroke-miterlimit: 10;
        stroke-width: 10px;
      }

      .st2 {
        fill: #f0d640;
      }
    </style>
  </defs>
  <path id="outer_skin" class="st2" d="M252.67,115.47c0,57.44-55,104.17-122.6,104.17-14.86,0-29.21-2.26-42.58-6.39-21.57-6.65-40.56-18.14-54.95-32.79-.03-.03-.05-.06-.06-.07s-.02-.01-.02-.01c-17.57-17.95-28.24-40.62-28.24-64.91,0-27.47,13.86-54.83,38.05-75.08,23.87-19.99,55.87-31.45,87.8-31.45,49.57,0,93.4,27.14,112.47,64.9,6.5,12.86,10.13,26.96,10.13,41.63Z"/>
  <g id="inner_skin">
    <path class="st0" d="M243.45,106.53c0,54.61-53.15,99.17-117.6,99.17S5,161.14,5,106.53,61.41,5,125.86,5s117.6,46.91,117.6,101.53Z"/>
    <path class="st1" d="M243.45,106.53c0,54.61-53.15,99.17-117.6,99.17S5,161.14,5,106.53,61.41,5,125.86,5s117.6,46.91,117.6,101.53Z"/>
  </g>
  <g id="pulp">
    <path class="st2" d="M200.07,62.92c.1.11.2.22.3.32,7.48,8.22,2.56,19.86-9.57,23l-47.33,12.23c-2.56.66-4.68-1.67-3.1-3.4l29.25-32.01c7.49-8.2,22.93-8.32,30.46-.14Z"/>
    <path class="st2" d="M145.91,103.37l52.18-12.46c13.36-3.19,27.23,4.06,27.27,14.39,0,.07,0,.14,0,.21s0,.14,0,.21c-.04,10.33-13.9,17.58-27.27,14.39l-52.18-12.46c-2.82-.67-2.82-3.6,0-4.28Z"/>
    <polygon class="st2" points="125.86 106.53 125.86 106.53 125.86 106.53 125.86 106.53"/>
    <polygon class="st2" points="125.86 106.53 125.86 106.53 125.86 106.53 125.86 106.53"/>
    <path class="st2" d="M50.18,60.19c.1-.12.2-.24.3-.35,7.68-8.89,23.41-8.75,31.04.16l29.81,34.78c1.61,1.88-.56,4.41-3.16,3.69l-48.24-13.28c-12.37-3.4-17.38-16.06-9.76-24.98Z"/>
    <path class="st0" d="M104.27,93.32s0,0,0,0c.58-.59,1.76-.58,2.34.01.17.17.31.37.46.55s.3.36.45.55c.17.21.21.35.1.6-.06.13-.16.25-.33.32-.06.03-.13.04-.21.06-.46.09-.95-.12-1.39-.22-.24-.06-.48-.12-.73-.18-.93-.23-1.29-1.09-.71-1.68Z"/>
    <path class="st2" d="M96.18,181.9c-.17-.05-.33-.1-.5-.15-11.38-3.43-15.72-16.16-8.68-25.07l24.89-27.12c1.48-1.88,7.32-8.62,7.32-6.3v43.05c.41,15.66-11.64,18.96-23.04,15.59Z"/>
    <path class="st2" d="M134.56,121.86l29.86,34.82c7.64,8.91,2.93,21.64-9.42,25.07-.18.05-.35.14-.54.15-18.87.78-25.01-4.58-25.01-15.59v-43.05c0-2.32,3.51-3.29,5.12-1.41Z"/>
    <path class="st2" d="M143.24,114.59l44.41,12.55c11.38,3.22,16,15.18,8.98,23.61-.09.11-.19.22-.28.33-7.07,8.4-21.55,8.27-28.58-.15l-27.45-32.87c-1.48-1.78.51-4.16,2.91-3.49Z"/>
    <path class="st2" d="M100.78,31.69c.15-.05.3-.1.46-.15,10.4-3.35,21.03,4.55,21.03,15.49v42.77c0,2.31-2.95,3.27-4.3,1.4l-25.11-34.6c-6.42-8.85-2.46-21.5,7.92-24.91Z"/>
    <path class="st2" d="M48,154.35c-.11-.12-.21-.24-.32-.36-7.93-9.19-2.71-22.21,10.15-25.72l50.19-13.67c2.71-.74,4.97,1.86,3.29,3.8l-33.41,35.68c-7.95,9.17-21.93,9.43-29.91.28Z"/>
    <path class="st2" d="M154.46,31.15c.18.04.36.1.54.15,12.22,3.4,15.22,13.55,8.11,23.58-.15.22-.32.43-.5.63l-28.04,35.68c-1.61,1.88-5.12.91-5.12-1.41v-43.05c0-9.72,13.82-17.87,25.01-15.59Z"/>
    <path class="st2" d="M55.51,120.16c-11.3,2.98-23.01-3.79-23.05-13.43,0-.07,0-.13,0-.2s0-.13,0-.2c.03-9.64,11.75-16.41,23.05-13.43l44.11,11.64c2.38.63,2.38,3.36,0,3.99l-44.11,11.64Z"/>
  </g>
  <g id="seeds">
    <path class="st0" d="M90.99,107.56c-.66,0-1.31-.05-1.92-.17-.29-.06-.6-.15-.75-.37-.18-.25-.08-.57.04-.84.17-.37.43-.75.87-.9.24-.08.51-.08.76-.08.9,0,2.04-.15,2.91.06.26.06.5.16.75.23s.49.16.74.23c.28.09.41.19.48.44.04.13.03.29-.05.42-.04.05-.08.1-.13.15-.32.29-.86.36-1.29.48-.74.21-1.57.32-2.41.34Z"/>
    <path class="st0" d="M158.67,103.02c.16.8-.67,1.6-1.63,1.58-.81-.02-1.46-.14-2.26-.1-.33.01-.72-.12-.79-.4-.11-.52,1.49-1.15,1.92-1.39.22-.12.45-.25.67-.37.86-.47,1.92-.11,2.08.69Z"/>
    <path class="st0" d="M156.43,107.52c-.76.23-1.98.34-2.65-.11-.22-.15-.42-.32-.62-.48s-.41-.32-.61-.48c-.23-.19-.31-.32-.26-.6.02-.15.11-.29.25-.39.06-.04.13-.07.2-.1.51-.2,1.19-.08,1.7.04.67.17,1.4.1,2.06.33.13.04.25.1.35.18.13.11.18.27.24.42.09.24.17.51.05.74-.11.22-.39.35-.66.44-.02,0-.03.01-.05.01Z"/>
    <path class="st0" d="M148.64,120.87s.01,0,0,0c-.77.4-1.89.07-2.21-.65-.09-.21-.15-.43-.23-.65s-.15-.43-.22-.64c-.08-.25-.07-.39.13-.59.1-.11.25-.19.43-.21.07,0,.14,0,.22,0,.47.04.86.37,1.23.59.21.12.41.24.62.37.79.47.8,1.38.03,1.79Z"/>
    <path class="st0" d="M118.3,85.89c.84-.29,1.88.19,2.06.94.05.22.07.45.1.67.08.57.11,1.13.13,1.7,0,.1,0,.21-.09.28-.07.06-.19.06-.28.03s-.17-.09-.24-.14c-.24-.19-.41-.46-.65-.64-.27-.2-.53-.41-.79-.62-.18-.15-.36-.3-.54-.45-.7-.57-.53-1.47.31-1.77Z"/>
    <path class="st0" d="M111.08,133.58c-.46-.66-.05-1.6.81-1.86.25-.08.51-.12.77-.18.66-.15,1.14-.29,1.73-.58.07-.04.15-.07.23-.07.2,0,.33.18.33.35,0,.4-.41.58-.62.88-.23.33-.43.63-.7.95-.15.17-.3.35-.44.52-.57.66-1.65.65-2.11,0Z"/>
    <path class="st0" d="M116.96,134.09c-.58,0-1.11-.36-1.38-.83-.26-.46.03-.95.2-1.4.08-.21.16-.43.24-.64.09-.24.2-.35.5-.43.16-.04.34-.04.5.02.06.03.12.06.18.1.36.26.47.71.64,1.07.09.2.18.4.28.6.25.54.01,1.21-.65,1.43-.16.06-.33.08-.49.08Z"/>
  </g>
</svg>