<?xml version="1.0" encoding="UTF-8"?>
<svg id="Logomark" xmlns="http://www.w3.org/2000/svg" xmlns:xlink="http://www.w3.org/1999/xlink" version="1.1" viewBox="0 0 276.3 276.3">
  <!-- Generator: Adobe Illustrator 29.2.1, SVG Export Plug-In . SVG Version: 2.1.0 Build 116)  -->
  <defs>
    <style>
      .st0 {
        fill: none;
        stroke: #f6f8f9;
        stroke-width: 5px;
      }

      .st0, .st1 {
        stroke-miterlimit: 10;
      }

      .st1 {
        fill: #044877;
      }

      #Logomark:hover #main_flake {
        transform: rotate(180deg);
        transform-origin: center;
        transition: transform 2s ease;
      }

      #Logomark:hover #sub_flake {
        transform: scale(1.1);
        transform-origin: center;
        transition: transform 0.7s ease;
      }

      <script>
      const logomark = document.querySelector('#Logomark')

      function logId() {
      console.log(`The ID of this element is: ${this.id}`);
      }

      logomark.addEventListener('click', logId);
    </script>
    </style>
  </defs>
  <circle id="bg_circle" class="st1" cx="138.2" cy="138.2" r="137.7"/>
  <g id="main_flake">
    <polygon class="st0" points="137.9 33.3 113.1 83.3 138 138.2 162.9 83.3 137.9 33.3"/>
    <polygon class="st0" points="138 138.2 113.1 193 137.9 243.1 162.9 193 138 138.2"/>
    <polygon class="st0" points="242.9 139.1 192.8 114.3 138 139.1 192.8 164 242.9 139.1"/>
    <polygon class="st0" points="138.3 139.1 83.5 114.3 33.4 139.1 83.5 164 138.3 139.1"/>
  </g>
  <g id="sub_flake">
    <polygon class="st0" points="75.6 75.6 84.5 102.1 112.7 112.6 102.1 84.5 75.6 75.6"/>
    <polygon class="st0" points="200.7 200.7 174.3 191.8 163.7 163.6 191.8 174.2 200.7 200.7"/>
    <polygon class="st0" points="75.6 200.7 102.1 191.8 112.7 163.6 84.5 174.2 75.6 200.7"/>
    <polygon class="st0" points="200.7 75.6 191.8 102.1 163.6 112.6 174.2 84.5 200.7 75.6"/>
  </g>
</svg>