<?xml version="1.0" encoding="UTF-8"?>
<svg id="Peach" xmlns="http://www.w3.org/2000/svg" xmlns:xlink="http://www.w3.org/1999/xlink" version="1.1" viewBox="0 0 231.9 251.91">
  <!-- Generator: Adobe Illustrator 29.2.1, SVG Export Plug-In . SVG Version: 2.1.0 Build 116)  -->
  <defs>
    <style>
      .st0 {
        fill: url(#linear-gradient2);
      }

      .st1 {
        fill: url(#linear-gradient1);
      }

      .st2 {
        fill: url(#linear-gradient3);
      }

      .st3 {
        fill: url(#linear-gradient);
      }
    </style>
    <linearGradient id="linear-gradient" x1="585.47" y1="33.93" x2="613.06" y2="33.93" gradientTransform="translate(721.29) rotate(-180) scale(1 -1)" gradientUnits="userSpaceOnUse">
      <stop offset="0" stop-color="#6b4b2d"/>
      <stop offset=".18" stop-color="#7f5e39"/>
      <stop offset=".48" stop-color="#a48250"/>
      <stop offset=".71" stop-color="#916e45"/>
      <stop offset=".94" stop-color="#936f46"/>
    </linearGradient>
    <linearGradient id="linear-gradient1" x1="0" y1="153.11" x2="197.59" y2="153.11" gradientUnits="userSpaceOnUse">
      <stop offset="0" stop-color="#f37453"/>
      <stop offset=".06" stop-color="#f3795d"/>
      <stop offset=".15" stop-color="#f37e69"/>
      <stop offset=".24" stop-color="#f4806d"/>
      <stop offset=".73" stop-color="#f7996a"/>
      <stop offset="1" stop-color="#fcbf8d"/>
    </linearGradient>
    <linearGradient id="linear-gradient2" x1="231.9" x2="51.03" y2="153.11" xlink:href="#linear-gradient1"/>
    <linearGradient id="linear-gradient3" x1="-107.14" y1="627.9" x2="-66.42" y2="627.9" gradientTransform="translate(806.9 -173.79) rotate(66.43) scale(.74 1.08)" gradientUnits="userSpaceOnUse">
      <stop offset=".1" stop-color="#399f48"/>
      <stop offset=".28" stop-color="#77b861"/>
      <stop offset=".38" stop-color="#93c46d"/>
      <stop offset=".57" stop-color="#84bb4c"/>
      <stop offset=".71" stop-color="#95ca56"/>
      <stop offset=".94" stop-color="#96ca58"/>
    </linearGradient>
  </defs>
  <path id="branch" class="st3" d="M125.76,67.85h0c3.01,0,5.73-2.58,6.12-6.14l3.83-34.96c1.24-11.29-8.01-24.02-14.94-24.46-.25-.02.24.06,0,0L111.23.06c-.48-.12.49-.04,0,0-6.51.5-1.08,11.52,3.71,24.81.4,1.11.83,2.97.96,4.13l3.71,32.73c.4,3.56,3.13,6.13,6.14,6.12Z"/>
  <g id="peach">
    <circle class="st1" cx="98.8" cy="153.11" r="98.8"/>
    <ellipse class="st0" cx="141.46" cy="153.11" rx="90.44" ry="98.8"/>
  </g>
  <g id="leaf">
    <g>
      <path class="st2" d="M165.38,52.36c14.5-10.89,24.46-18.59,26.55-27.91-9.45-6.15-24.51-6.73-39.01.69-14.5,10.89-24.46,18.59-26.55,27.91,9.45,6.15,24.51,6.73,39.01-.69Z"/>
      <path class="st2" d="M165.38,52.36c14.5-10.89,24.46-18.59,26.55-27.91-9.45-6.15-24.51-6.73-39.01.69-14.5,10.89-24.46,18.59-26.55,27.91,9.45,6.15,24.51,6.73,39.01-.69Z"/>
    </g>
  </g>
</svg>