<?xml version="1.0" encoding="UTF-8"?>
<svg id="Playmark" xmlns="http://www.w3.org/2000/svg" version="1.1" viewBox="0 0 131.7 133">
  <!-- Generator: Adobe Illustrator 29.2.1, SVG Export Plug-In . SVG Version: 2.1.0 Build 116)  -->
  <defs>
    <style>
      .st0 {
        fill: #fafafc;
      }

      .st1 {
        fill: #9b9b9b;
      }

      .st2 {
        fill: #fff;
      }

      #Playmark #play {
        opacity: 0;
        transition: opacity 0.1s ease, transform 15s ease;
      }

      #Playmark:hover #play {
        opacity: 1;
        transform: rotate(180deg);
        transform-origin: center;
      }

      #Playmark:hover #stroke_circle {
        opacity: 0;
      }

      #Playmark:hover #triangle {
        transform: scale(0.8);
        transform-origin: center;
        transition: transform 0.7s ease;
      }

      <script>
      const playmark = document.querySelector('#Playmark')

      function logId() {
      console.log(`The ID of this element is: ${this.id}`);
      }

      playmark.addEventListener('click', logId);
    </script>
    </style>
  </defs>
  <g>
    <circle id="backcircle" class="st1" cx="65.8" cy="66.6" r="54.6"/>
    <path class="st2" d="M65.8,121.7c-30.4,0-55.1-24.7-55.1-55.1S35.5,11.5,65.8,11.5s55.1,24.7,55.1,55.1-24.7,55.1-55.1,55.1ZM65.8,12.5c-29.8,0-54.1,24.3-54.1,54.1s24.3,54.1,54.1,54.1,54.1-24.3,54.1-54.1S95.7,12.5,65.8,12.5Z"/>
  </g>
  <path id="stroke_circle" class="st1" d="M65.8,130.8C30.4,130.8,1.6,102,1.6,66.6S30.4,2.4,65.8,2.4s64.2,28.8,64.2,64.2-28.8,64.2-64.2,64.2h0ZM65.8,5.4C32.1,5.4,4.6,32.9,4.6,66.6s27.5,61.2,61.2,61.2,61.2-27.5,61.2-61.2S99.6,5.4,65.8,5.4Z"/>
  <g id="play">
    <path class="st1" d="M1.6,65.8v-.8s.5,0,.5,0h0c-.3-.4-.5-.9-.5-1.4,0-1.1,1-1.7,2.3-1.7,1.5,0,2.4,1,2.3,2,0,.4-.2.8-.5,1.1h2.1c0,0,0,1.1,0,1.1l-6.2-.2h0ZM3.9,62.9c-.9,0-1.4.2-1.4.9,0,.3.1.6.5,1h2.1c.3-.2.4-.5.4-.8,0-.6-.5-1.1-1.5-1.1h0Z"/>
    <path class="st1" d="M5.2,60.9l-5.2-.5v-1c0,0,5.3.5,5.3.5.2,0,.4,0,.4-.2v-.2h.8c0,0,0,.3,0,.5,0,.7-.6,1-1.3.9h0Z"/>
    <path class="st1" d="M5.3,58.7c-.9-.2-1.3-1-1.2-2.8-.5,0-.9,0-1,.7,0,.4,0,.9.2,1.3l-.7.3c-.2-.5-.4-1.2-.3-1.9.2-1.1.9-1.5,2.1-1.3l2.6.4v.8h-.6c.3.5.5,1,.4,1.5-.1.8-.7,1.2-1.5,1.1h0ZM5.8,56.2l-1-.2c0,1.2.2,1.7.6,1.7.4,0,.6-.2.7-.5,0-.4,0-.7-.3-1h0Z"/>
    <path class="st1" d="M8.9,54.9l-.7-.4c0,0,.1-.2.1-.3.1-.5-.1-.8-.5-1h-.2c0-.1-4.6.5-4.6.5l.2-1,2.3-.2c.4,0,.9,0,1.3,0h0c-.4-.2-.8-.5-1.1-.7l-2-1.1.2-1,4.1,2.6c.9.6,1.4,1.2,1.2,2.1,0,.2-.1.4-.2.5h0Z"/>
    <path class="st1" d="M7.1,43.1c.5.2.7.7.5,1.2s-.7.7-1.2.5-.7-.7-.5-1.2c.2-.5.7-.7,1.2-.5Z"/>
    <path class="st1" d="M8.8,37l.4-.7.4.2h0c0-.5,0-1,.1-1.5.5-1,1.6-1.1,2.8-.4,1.3.7,1.6,1.9,1.2,2.8-.2.3-.5.6-1,.8l.7.3,1.2.7-.5.9-5.4-3h0ZM12.1,35.4c-.8-.4-1.4-.4-1.7.2-.1.3-.2.6,0,1.1l1.8,1c.4-.2.6-.4.8-.6.3-.5,0-1.2-.8-1.6Z"/>
    <path class="st1" d="M14.1,34.2l-4.4-2.8.5-.9,4.5,2.8c.2.1.4,0,.4,0,0,0,0,0,0-.2l.7.3c0,.1,0,.3-.2.5-.4.6-.9.6-1.6.2h0Z"/>
    <path class="st1" d="M15.2,32.3c-.8-.5-.7-1.5.2-3.1-.4-.3-.8-.3-1.2.2-.3.4-.3.8-.4,1.3h-.8c0-.7.2-1.3.6-1.9.6-.9,1.5-1,2.5-.2l2.1,1.5-.5.7-.4-.2h0c0,.5,0,1.1-.3,1.5-.5.6-1.2.8-1.8.3h0ZM16.8,30.2l-.8-.6c-.6,1.1-.5,1.6-.2,1.8.3.2.6.1.8-.2.2-.3.2-.6.2-1.1Z"/>
    <path class="st1" d="M20.2,30.5l-.5-.7c0,0,.2-.1.2-.2.3-.4.2-.8,0-1.2l-.2-.2-4.5-1.5.7-.8,2.1.8c.4.1.8.3,1.2.5h0c-.2-.4-.5-.7-.7-1.1l-1.2-1.9.6-.8,2.5,4.2c.5.9.7,1.7,0,2.4-.1.2-.3.3-.4.4h0Z"/>
    <path class="st1" d="M23.8,19.1c.4.4.3,1,0,1.3-.4.4-1,.3-1.3,0-.4-.4-.3-1,0-1.3.4-.4,1-.3,1.3,0Z"/>
    <path class="st1" d="M28.3,14.2l.7-.5.3.3h0c.1-.5.4-1,.8-1.2.9-.6,1.9-.2,2.7.9.9,1.2.6,2.5-.2,3-.3.2-.7.3-1.2.2l.4.6.8,1.1-.8.6-3.5-5.1h0ZM31.9,14.3c-.5-.7-1-1-1.6-.6-.3.2-.4.5-.5,1l1.2,1.7c.4,0,.7,0,.9-.2.5-.3.6-1,0-1.8h0Z"/>
    <path class="st1" d="M34.3,14.1l-2.7-4.5.9-.5,2.7,4.5c.1.2.3.2.4.2,0,0,0,0,.1-.1l.5.6c0,.1-.2.2-.4.4-.6.4-1.1.1-1.5-.5h0Z"/>
    <path class="st1" d="M36.2,12.9c-.4-.8,0-1.6,1.5-2.7-.2-.4-.6-.7-1.1-.4-.4.2-.7.6-.9,1l-.7-.4c.3-.5.7-1,1.3-1.4,1-.5,1.8-.2,2.3.9l1.2,2.3-.8.4-.3-.4h0c-.2.5-.5.9-.9,1.2-.7.4-1.4.1-1.8-.5h0ZM38.5,11.7l-.5-.9c-1,.7-1.2,1.2-1,1.6.2.4.5.4.8.2.3-.2.5-.4.6-.9h0Z"/>
    <path class="st1" d="M41.4,13.5v-.8s0,0,.2,0c.4-.2.5-.6.5-1.1v-.3s-3.4-3.3-3.4-3.3l1-.4,1.6,1.7c.3.3.6.7.8,1h0c0-.4-.1-.9-.2-1.3l-.3-2.2.9-.4.4,4.9c0,1.1-.1,1.8-1,2.2-.2.1-.4.1-.6.1h0Z"/>
    <path class="st1" d="M49.8,5c.1.5-.1,1-.6,1.1-.5.1-1-.1-1.2-.6-.1-.5.1-1,.6-1.2.5-.2,1,.2,1.2.6Z"/>
    <path class="st1" d="M55.7,2.6h.8c0-.1.1.3.1.3h0c.3-.4.8-.7,1.2-.8,1.1-.2,1.8.6,2,2,.2,1.5-.6,2.5-1.5,2.6-.4,0-.8,0-1.2-.3v.7c.1,0,.3,1.4.3,1.4h-1c0,.1-.8-6-.8-6h0ZM58.9,4.4c-.1-.9-.5-1.3-1.1-1.3-.3,0-.6.2-.9.6l.3,2c.3.2.7.3.9.2.6,0,1-.7.8-1.7h0Z"/>
    <path class="st1" d="M61.1,5.3l-.4-5.2h1c0,0,.4,5.2.4,5.2,0,.2.1.3.2.3,0,0,0,0,.2,0l.2.8c-.1,0-.3.1-.5.1-.7,0-1-.4-1.1-1.2h0Z"/>
    <path class="st1" d="M63.3,5.1c0-.9.8-1.5,2.6-1.7,0-.5-.2-.9-.8-.8-.4,0-.8.2-1.2.5l-.4-.7c.5-.3,1.1-.6,1.8-.6,1.1,0,1.7.7,1.7,1.9v2.6c0,0-.8,0-.8,0v-.5h-.1c-.4.4-.8.6-1.4.6-.8,0-1.3-.5-1.3-1.3h0ZM65.9,5v-1c-1.2.2-1.6.5-1.6.9,0,.4.3.6.7.6.4,0,.6-.2.9-.5Z"/>
    <path class="st1" d="M67.7,7.9l.2-.8c0,0,.2,0,.3,0,.5,0,.8-.3.9-.7v-.3c0,0-1.4-4.4-1.4-4.4h1.1c0,0,.7,2.2.7,2.2.1.4.2.8.3,1.3h0c.1-.4.3-.8.4-1.2l.8-2.1h1c0,0-1.8,4.6-1.8,4.6-.4,1-.9,1.6-1.9,1.5-.2,0-.4,0-.6-.1h0Z"/>
    <path class="st1" d="M79,4c0,.5-.6.8-1.1.8-.5,0-.8-.6-.8-1.1,0-.5.6-.8,1.1-.8.5,0,.8.6.8,1.1Z"/>
    <path class="st1" d="M85.3,4.5l.8.3v.5c0,0,0,0,0,0,.4-.2,1-.3,1.4-.1,1.1.4,1.4,1.4.9,2.7-.5,1.4-1.6,2-2.5,1.7-.4-.1-.7-.4-.9-.8l-.2.7-.4,1.3-1-.3,2-5.8h0ZM87.4,7.5c.3-.8.2-1.4-.5-1.6-.3-.1-.6,0-1.1.2l-.7,1.9c.2.4.5.6.7.6.6.2,1.2-.2,1.5-1.1Z"/>
    <path class="st1" d="M89,9.3l2-4.8,1,.4-2,4.9c0,.2,0,.4,0,.4,0,0,0,0,.2,0l-.2.8c-.1,0-.3,0-.5-.1-.7-.3-.8-.8-.5-1.5h0Z"/>
    <path class="st1" d="M91,10.1c.4-.9,1.3-1,3.1-.4.2-.4.2-.9-.3-1.1-.4-.2-.9-.2-1.3-.1v-.8c.5,0,1.2,0,1.8.2,1,.5,1.2,1.3.7,2.4l-1.1,2.4-.8-.4v-.5c.1,0,.1,0,.1,0-.5.1-1,.2-1.5,0-.7-.3-1-1-.6-1.7h0ZM93.4,11.2l.4-.9c-1.2-.4-1.6-.3-1.8.1-.2.4,0,.6.3.8.3.1.7.1,1.1,0Z"/>
    <path class="st1" d="M93.7,14.6l.6-.6c0,0,.2.2.2.2.4.2.8,0,1.1-.2l.2-.2.6-4.7.9.5-.4,2.3c0,.4-.2.9-.3,1.3h0c.3-.3.6-.6.9-.9l1.6-1.6.9.5-3.7,3.2c-.8.7-1.5,1-2.4.5-.2-.1-.3-.2-.5-.4h0Z"/>
    <path class="st1" d="M105.6,16.1c-.3.4-.9.5-1.3.2s-.5-.9-.2-1.3.9-.5,1.3-.2c.4.3.5.9.2,1.3Z"/>
    <path class="st1" d="M111,19.4l.6.6-.3.4h0c.5,0,1,.2,1.3.6.8.8.6,1.9-.4,2.8s-2.3,1-3,.4c-.3-.3-.4-.7-.5-1.1l-.5.5-1,1-.7-.7,4.4-4.4h0ZM111.6,23c.6-.6.8-1.2.3-1.7-.2-.2-.6-.3-1-.3l-1.5,1.5c0,.4.2.7.4.9.4.4,1.1.4,1.8-.3h0Z"/>
    <path class="st1" d="M112.2,25.3l3.9-3.5.7.8-3.9,3.5c-.2.2-.2.3-.1.4,0,0,0,0,.1.1l-.5.6c-.1,0-.3-.2-.4-.4-.5-.5-.3-1.1.3-1.6Z"/>
    <path class="st1" d="M113.7,26.9c.7-.6,1.6-.3,2.9,1,.4-.3.6-.7.2-1.2-.3-.3-.7-.5-1.1-.7l.3-.7c.5.2,1.2.5,1.6,1.1.7.9.5,1.7-.5,2.5l-2.1,1.6-.5-.7.3-.4h0c-.5-.1-1-.3-1.3-.7-.5-.6-.4-1.4.2-1.8h0ZM115.3,29l.8-.6c-.9-.9-1.4-1-1.7-.7-.3.2-.3.6,0,.9.2.3.5.4,1,.5Z"/>
    <path class="st1" d="M114.1,32.2l.8-.3c0,0,0,.2.1.3.3.4.7.4,1.1.3h.3c0,0,2.6-4,2.6-4l.6.9-1.4,1.8c-.2.3-.5.7-.8,1h0c.4-.1.8-.3,1.2-.4l2.2-.7.6.8-4.7,1.3c-1,.2-1.8.2-2.3-.6-.1-.2-.2-.4-.2-.5h0Z"/>
    <path class="st1" d="M124,38.8c-.5.2-1,0-1.2-.4-.2-.5,0-1,.4-1.2s1,0,1.2.4c.2.5,0,1-.4,1.2Z"/>
    <path class="st1" d="M128.2,46.6l.2.8-.4.2h0c.4.3.8.7.9,1.1.3,1.1-.4,1.9-1.7,2.3-1.4.4-2.5-.2-2.8-1.1-.1-.4,0-.8.1-1.2l-.7.2-1.3.4-.3-1,5.9-1.7h0ZM127,50c.9-.2,1.3-.7,1.1-1.3,0-.3-.3-.5-.8-.8l-2,.6c-.2.4-.2.7-.1,1,.2.6.8.8,1.8.6h0Z"/>
    <path class="st1" d="M126.4,52.3l5.1-1.2.2,1-5.1,1.2c-.2,0-.3.2-.3.3,0,0,0,0,0,.2l-.7.3c0-.1-.1-.3-.2-.5-.2-.7.2-1.1,1-1.3h0Z"/>
    <path class="st1" d="M126.9,54.4c.9-.2,1.6.5,2,2.3.5,0,.8-.3.7-.9,0-.4-.3-.8-.6-1.2l.6-.5c.4.4.8,1,.9,1.7.2,1.1-.4,1.7-1.6,1.9l-2.6.4v-.8c-.1,0,.3-.2.3-.2h0c-.4-.4-.7-.8-.8-1.3-.1-.8.3-1.4,1.1-1.5h0ZM127.3,57l1-.2c-.4-1.2-.7-1.5-1.2-1.4-.4,0-.5.4-.4.7s.3.6.6.9h0Z"/>
    <path class="st1" d="M124.7,59.2h.8c0,.2,0,.3,0,.4,0,.5.4.7.8.8h.3c0,0,4.2-2.1,4.2-2.1v1c.1,0-2,1-2,1-.4.2-.8.3-1.2.5h0c.4.1.9.2,1.3.3l2.2.4v1c0,0-4.7-1.2-4.7-1.2-1-.3-1.7-.7-1.8-1.6,0-.2,0-.4,0-.6h0Z"/>
    <path class="st1" d="M130.2,69.9c-.5,0-.9-.4-.9-1s.4-.9,1-.9c.5,0,.9.4.9,1,0,.5-.5.9-1,.9Z"/>
    <path class="st1" d="M130.3,78.3l-.2.8h-.5s0,0,0,0c.2.4.4.9.3,1.4-.2,1.1-1.2,1.5-2.6,1.2-1.5-.3-2.1-1.4-1.9-2.3,0-.4.3-.7.7-1h-.7c0-.1-1.4-.4-1.4-.4l.2-1,6,1.3h0ZM127.6,80.8c.9.2,1.4,0,1.6-.7,0-.3,0-.6-.3-1.1l-2-.4c-.3.2-.5.5-.5.8-.1.6.3,1.1,1.3,1.3h0Z"/>
    <path class="st1" d="M126,82.5l5,1.4-.3,1-5.1-1.4c-.2,0-.4,0-.4.1,0,0,0,0,0,.2h-.8c0-.2,0-.4,0-.6.2-.7.7-.8,1.5-.6h0Z"/>
    <path class="st1" d="M125.4,84.6c.9.3,1.1,1.2.7,3,.4.1.9,0,1.1-.5.1-.4,0-.9,0-1.3h.8c.1.4.2,1.1,0,1.8-.4,1.1-1.2,1.3-2.3.9l-2.5-.8.3-.8h.5c0,0,0,0,0,0-.2-.5-.3-1-.1-1.5.2-.7.9-1.1,1.6-.8h0ZM124.6,87.1l.9.3c.2-1.2,0-1.7-.4-1.8-.4-.1-.6,0-.7.4-.1.3,0,.7.1,1.1h0Z"/>
    <path class="st1" d="M121.2,87.9l.7.5c0,0-.1.2-.2.3-.2.4,0,.8.3,1.1l.2.2h4.7c0,.1-.4,1.1-.4,1.1l-2.3-.2c-.4,0-.9,0-1.3-.1h0c.3.3.7.6,1,.8l1.7,1.5-.4.9-3.6-3.3c-.8-.7-1.2-1.4-.8-2.3,0-.2.2-.4.3-.5h0Z"/>
    <path class="st1" d="M121,99.8c-.4-.3-.6-.8-.3-1.3.3-.4.8-.6,1.3-.3.4.3.6.8.3,1.3-.3.5-.8.6-1.3.3Z"/>
    <path class="st1" d="M118.3,105.5l-.5.7-.4-.2h0c0,.5,0,1-.4,1.4-.7.9-1.8.8-2.8,0-1.2-.9-1.3-2.2-.7-3,.2-.3.6-.5,1.1-.6l-.6-.4-1.1-.9.7-.8,4.8,3.8h0ZM114.8,106.5c.7.6,1.3.7,1.7.1.2-.2.3-.6.2-1.1l-1.6-1.3c-.4,0-.7.3-.8.5-.4.5-.2,1.1.5,1.8h0Z"/>
    <path class="st1" d="M112.6,107.4l3.9,3.5-.7.8-3.9-3.5c-.2-.2-.3-.2-.4,0,0,0,0,0,0,.1l-.7-.4c0-.1.1-.3.3-.5.5-.6,1-.4,1.6,0h0Z"/>
    <path class="st1" d="M111.2,109c.7.7.5,1.6-.7,3,.3.3.8.5,1.2,0s.5-.7.6-1.2l.8.2c-.1.6-.4,1.2-.9,1.7-.8.8-1.7.7-2.5-.2l-1.8-1.9.6-.6.4.3h0c0-.5.2-1,.6-1.4.6-.5,1.3-.6,1.8,0h0ZM109.3,110.8l.7.7c.8-.9.8-1.5.5-1.8s-.6-.2-.8,0c-.2.2-.3.6-.3,1h0Z"/>
    <path class="st1" d="M106,110l.4.7c0,0-.2,0-.3.2-.3.3-.3.7-.2,1.2v.3c.1,0,4.3,2.2,4.3,2.2l-.8.7-2-1.2c-.4-.2-.7-.5-1.1-.7h0c.2.4.4.8.6,1.2l.9,2.1-.8.7-1.8-4.6c-.4-1-.4-1.8.3-2.4.2-.2.3-.2.5-.3h0Z"/>
    <path class="st1" d="M100.5,120.6c-.3-.4-.2-1,.3-1.3s1-.2,1.3.3.2,1-.3,1.3c-.4.3-1,.1-1.3-.3Z"/>
    <path class="st1" d="M93.6,125.5l-.8.3-.3-.4h0c-.2.4-.6.9-1,1.1-1,.4-1.9-.1-2.5-1.4-.6-1.4,0-2.6.8-2.9.4-.2.8-.1,1.2,0l-.3-.7-.6-1.3.9-.4,2.4,5.7h0ZM90,124.7c.3.8.8,1.2,1.4.9.3-.1.5-.4.7-.8l-.8-1.9c-.4-.1-.7,0-1,0-.5.2-.8.9-.4,1.8h0Z"/>
    <path class="st1" d="M87.7,124.4l1.8,4.9-1,.4-1.8-5c0-.2-.2-.3-.3-.2,0,0,0,0-.2,0l-.4-.7c0,0,.2-.2.5-.3.7-.2,1.1.1,1.4.8Z"/>
    <path class="st1" d="M85.6,125.2c.3.9-.3,1.6-2,2.3.2.4.4.8,1,.6.4-.1.8-.4,1.1-.8l.6.6c-.4.4-.9.9-1.6,1.1-1.1.3-1.8-.2-2.1-1.4l-.7-2.5.8-.2.2.4h0c.3-.4.7-.8,1.2-1,.7-.2,1.4.1,1.6.9h0ZM83.1,125.9l.3.9c1.1-.5,1.4-.9,1.3-1.3-.1-.4-.4-.5-.8-.4-.3.1-.6.4-.8.7h0Z"/>
    <path class="st1" d="M80.6,123.6v.8c-.1,0-.2,0-.3,0-.5,0-.7.5-.7.9v.3s2.6,3.9,2.6,3.9l-1,.2-1.2-2c-.2-.4-.4-.8-.6-1.1h0c0,.4,0,.9,0,1.3l-.2,2.3-1,.2.6-4.9c.2-1.1.5-1.8,1.4-1.9.2,0,.4,0,.6,0h0Z"/>
    <path class="st1" d="M70.7,130.3c0-.5.3-1,.8-1s1,.3,1,.9c0,.5-.3,1-.8,1-.5,0-1-.4-1-.9Z"/>
    <path class="st1" d="M64.5,131.4h-.8c0,0,0-.5,0-.5h0c-.4.3-.9.5-1.4.5-1.1,0-1.7-1-1.6-2.4,0-1.5,1-2.3,2-2.3.4,0,.8.2,1.1.6v-2.1c0,0,1.1,0,1.1,0l-.4,6.2h0ZM61.7,129.1c0,.9.2,1.4.9,1.5.3,0,.6-.1,1-.4v-2.1c-.2-.3-.5-.4-.7-.4-.6,0-1.1.5-1.1,1.5h0Z"/>
    <path class="st1" d="M59.7,127.8l-.6,5.2h-1c0-.1.6-5.4.6-5.4,0-.2,0-.4-.2-.4h-.2v-.8c0,0,.3,0,.5,0,.7,0,.9.6.8,1.4h0Z"/>
    <path class="st1" d="M57.5,127.6c-.2.9-1,1.3-2.8,1.2,0,.5,0,.9.6,1,.4,0,.9,0,1.3-.2l.2.8c-.5.2-1.2.4-1.9.2-1.1-.2-1.5-1-1.3-2.2l.5-2.6h.8v.6h0c.5-.3.9-.4,1.5-.4.8.1,1.2.8,1.1,1.5h0ZM54.9,127.1l-.2,1c1.2,0,1.7-.2,1.7-.6,0-.4-.2-.6-.5-.7-.3,0-.7,0-1,.3Z"/>
    <path class="st1" d="M53.7,123.9l-.4.7c0,0-.2-.1-.3-.1-.5-.1-.8.1-1,.5l-.2.2.6,4.7-1-.3-.2-2.3c0-.4,0-.9,0-1.3h0c-.2.4-.4.8-.6,1.1l-1.2,1.9-1-.2,2.7-4.1c.6-.9,1.2-1.4,2.1-1.1.2,0,.4.1.5.2h0Z"/>
    <path class="st1" d="M38.5,124c.2-.5.8-.7,1.2-.4.5.2.7.8.4,1.2-.2.5-.8.7-1.2.4-.5-.2-.7-.8-.4-1.2h0Z"/>
    <path class="st1" d="M34.1,122.8l-.7-.4.2-.4h0c-.5,0-1,0-1.4-.2-.9-.6-1-1.7-.3-2.8.8-1.3,2-1.6,2.9-1,.3.2.6.6.7,1l.4-.6.7-1.2.9.5-3.2,5.2h0ZM32.8,119.5c-.5.8-.5,1.3,0,1.7.3.2.6.2,1.1,0l1.1-1.8c-.1-.4-.3-.6-.6-.8-.5-.3-1.2,0-1.7.8Z"/>
    <path class="st1" d="M31.6,117.4l-3,4.3-.8-.6,3-4.3c.2-.2,0-.3,0-.4,0,0,0,0-.1,0l.3-.7c.1,0,.3,0,.5.2.6.4.5,1,.1,1.6h0Z"/>
    <path class="st1" d="M29.8,116.1c-.6.7-1.5.6-3-.3-.3.4-.4.8,0,1.2.3.3.8.4,1.2.4v.8c-.7,0-1.4-.2-1.9-.7-.9-.7-.9-1.6-.1-2.5l1.6-2.1.7.5-.2.4h0c.5,0,1,0,1.5.4.6.5.7,1.2.2,1.8h0ZM27.8,114.5l-.6.8c1,.6,1.5.6,1.8.3.2-.3.1-.6-.2-.8-.3-.2-.6-.2-1-.2Z"/>
    <path class="st1" d="M28.2,111.1l-.7.5c0,0-.1-.2-.2-.3-.3-.3-.8-.3-1.2,0l-.2.2-1.7,4.4-.8-.7.9-2.1c.2-.4.4-.8.6-1.2h0c-.4.2-.7.5-1.1.7l-2,1.2-.7-.7,4.3-2.3c.9-.5,1.7-.6,2.4,0,.2.2.3.3.4.5Z"/>
    <path class="st1" d="M14.7,104c.4-.3,1-.2,1.3.2s.2,1-.2,1.3c-.4.3-1,.2-1.3-.2-.3-.4-.2-1,.2-1.3Z"/>
    <path class="st1" d="M11.5,101l-.4-.7.4-.3h0c-.5-.2-.9-.5-1.2-.9-.6-.9-.1-1.9,1.1-2.6,1.3-.8,2.5-.4,3,.4.2.3.2.8.2,1.2l.6-.4,1.2-.7.5.9-5.3,3.1h0ZM11.8,97.3c-.8.4-1.1,1-.7,1.5.2.3.5.5.9.6l1.8-1c0-.4,0-.7-.1-.9-.3-.5-1-.6-1.8-.1Z"/>
    <path class="st1" d="M11.8,95l-4.7,2.4-.5-.9,4.7-2.4c.2-.1.3-.3.2-.4,0,0,0,0,0-.1l.6-.5c.1,0,.2.2.3.4.3.7,0,1.1-.7,1.5h0Z"/>
    <path class="st1" d="M10.8,93c-.9.4-1.6-.1-2.5-1.7-.4.2-.7.5-.5,1.1.2.4.5.7.9,1l-.5.6c-.5-.3-1-.8-1.3-1.4-.4-1,0-1.8,1.1-2.3l2.4-1.1.3.8-.4.3h0c.5.3.9.6,1.1,1,.3.7,0,1.4-.7,1.7h0ZM9.7,90.6l-.9.4c.6,1,1.1,1.3,1.5,1.1.4-.2.4-.5.3-.8-.1-.3-.4-.5-.8-.7Z"/>
    <path class="st1" d="M11.7,87.9h-.8s0-.1,0-.2c-.1-.4-.5-.6-1-.6h-.3l-3.5,3.1-.4-1,1.8-1.4c.3-.3.7-.5,1.1-.8h0c-.4,0-.9,0-1.3,0h-2.3c0,0-.3-.8-.3-.8h4.9c1.1,0,1.8.2,2.1,1.1,0,.2.1.4.1.6h0Z"/>
    <path class="st1" d="M3.2,75.2c.5,0,1,.3,1.1.8s-.3,1-.8,1.1c-.5,0-1-.3-1.1-.8,0-.5.3-1,.8-1.1Z"/>
  </g>
  <polygon id="triangle" class="st0" points="103.3 66.4 44.8 32.6 44.8 100.2 103.3 66.4"/>
</svg>